<?xml version="1.0" standalone="no"?>
<!DOCTYPE svg PUBLIC "-//W3C//DTD SVG 20010904//EN"
 "http://www.w3.org/TR/2001/REC-SVG-20010904/DTD/svg10.dtd">
<svg width="134" height="48" viewBox="0 0 134 48" fill="none" xmlns="http://www.w3.org/2000/svg">
<g clip-path="url(#clip0_4039_1400)">
<path d="M28.9576 14.9788C27.2589 13.8513 25.3176 13.207 23.2955 13.207C21.4351 13.207 19.6555 13.6903 18.0378 14.6567C18.0378 14.6567 18.0378 14.7372 18.1187 14.7372L18.1996 14.8178C18.1996 14.8983 18.2805 14.8983 18.2805 14.9788C18.3613 15.0594 18.5231 15.2205 18.6849 15.301L18.7658 15.3815L18.8467 15.4621C19.0084 15.6231 19.2511 15.7842 19.4129 15.8648L19.4938 15.9453C19.5747 16.0258 19.7364 16.1064 19.8173 16.1869C22.0013 15.1399 24.6705 15.1399 26.7736 16.1869L26.9354 16.2674C27.6634 16.6701 28.3105 17.1533 28.8767 17.7171C29.0384 17.8782 29.2811 18.1198 29.4429 18.3614L29.6855 18.6835C30.6562 20.0527 31.1415 21.5829 31.1415 23.1936C31.1415 27.5426 27.5825 31.0862 23.2146 31.0862C18.8467 31.0862 15.2876 27.5426 15.2876 23.1936C15.2876 21.5829 15.773 19.9721 16.7436 18.603C16.7436 18.603 16.7436 18.603 16.6627 18.603L16.5009 18.5225L16.4201 18.4419C16.2583 18.2809 16.0156 18.1198 15.8538 17.9587C15.6921 17.7976 15.5303 17.6366 15.3685 17.4755L15.2876 17.395L15.2067 17.3144C13.9126 19.0057 13.1846 21.0996 13.1846 23.2741C13.1846 28.7507 17.6334 33.2607 23.2146 33.2607C28.7958 33.2607 33.2446 28.8312 33.2446 23.2741C33.2446 20.9386 32.4357 18.6835 30.9797 16.9117C30.4135 16.1064 29.6855 15.4621 28.9576 14.9788Z" fill="#B10051"/>
<path d="M17.6335 18.2013C19.3322 19.3289 21.2734 19.9732 23.2956 19.9732C25.156 19.9732 26.9355 19.4899 28.5533 18.5235C28.5533 18.5235 28.5533 18.5235 28.4724 18.443L28.3915 18.3624C28.3915 18.2819 28.3106 18.2819 28.3106 18.2013C28.2297 18.1208 28.068 17.9597 27.9871 17.8792L27.9062 17.7987L27.8253 17.7181C27.6635 17.557 27.4209 17.396 27.2591 17.3154L27.1782 17.2349C27.0973 17.1544 26.9355 17.0738 26.8547 16.9933C24.6707 18.0403 22.0823 18.0403 19.8984 16.9933L19.5748 16.9128C18.6042 16.4295 17.7953 15.7047 17.0673 14.8188L16.8247 14.4966C15.854 13.1275 15.3687 11.5973 15.3687 9.98658C15.3687 5.63758 18.9277 2.09396 23.2956 2.09396C27.6635 2.09396 31.2226 5.63758 31.2226 9.98658C31.2226 11.5973 30.7372 13.2081 29.7666 14.5772C29.7666 14.5772 29.7666 14.5772 29.8475 14.5772L30.0093 14.6577L30.0901 14.7383C30.2519 14.8993 30.4946 15.0604 30.6564 15.2215C30.8181 15.3826 30.9799 15.5436 31.1417 15.7047L31.2226 15.7852L31.3034 15.8658C32.5976 14.1745 33.3256 12.0805 33.3256 9.90604C33.3256 4.42953 28.7959 0 23.2956 0C17.7953 0 13.2656 4.42953 13.2656 9.98658C13.2656 12.3221 14.0745 14.5772 15.5305 16.349C16.1776 16.9933 16.9055 17.6376 17.6335 18.2013Z" fill="#A2C13A"/>
<path d="M27.5021 16.994C27.4212 16.9135 27.4212 16.9135 27.5021 16.994C27.5021 16.994 27.5021 16.994 27.583 17.0745C27.5021 16.994 27.5021 16.994 27.5021 16.994Z" fill="#58595B"/>
<path d="M30.0088 14.8984L30.0903 14.9796L30.0088 14.8984Z" fill="#58595B"/>
<path d="M29.0381 18.2031L29.1196 18.2843C29.1196 18.2031 29.1196 18.2031 29.0381 18.2031Z" fill="#58595B"/>
<path d="M28.0688 17.3975L27.9873 17.3164C27.9873 17.3975 28.0688 17.3975 28.0688 17.3975C28.0688 17.4787 28.0688 17.3975 28.0688 17.3975Z" fill="#58595B"/>
<path d="M15.6924 17.4754C15.6115 17.3949 15.4497 17.3143 15.3688 17.1533L15.207 16.9922C15.3688 17.1533 15.5306 17.3143 15.6924 17.4754Z" fill="#58595B"/>
<path d="M15.8535 17.6367C15.8535 17.6367 15.9344 17.7173 16.0153 17.7173C15.9344 17.7173 15.9344 17.7173 15.8535 17.6367Z" fill="#58595B"/>
<path d="M30.5752 15.3828C30.6561 15.4633 30.6561 15.4633 30.5752 15.3828L30.6561 15.4633C30.8179 15.6244 30.9796 15.7855 31.1414 15.9466L31.2223 16.0271C31.0605 15.866 30.8179 15.6244 30.5752 15.3828Z" fill="#58595B"/>
<path d="M16.501 18.1211C16.5819 18.2016 16.5819 18.2016 16.6628 18.2822L16.501 18.1211Z" fill="#58595B"/>
<path d="M0 8.37448C0 4.66978 2.75016 1.60938 6.79452 1.60938C8.73581 1.60938 10.03 2.0926 11.1624 2.89797C11.486 3.13958 11.7286 3.54226 11.7286 4.02548C11.7286 4.83085 11.0815 5.39461 10.3535 5.39461C9.94911 5.39461 9.70645 5.23354 9.46379 5.153C8.65492 4.58924 7.84605 4.26709 6.79452 4.26709C4.61056 4.26709 2.99282 6.03891 2.99282 8.29394C2.99282 10.549 4.52968 12.3208 6.79452 12.3208C8.00782 12.3208 8.81669 11.9181 9.62556 11.2738C9.86823 11.1127 10.1109 10.9517 10.5153 10.9517C11.2433 10.9517 11.8904 11.5154 11.8904 12.2402C11.8904 12.7235 11.6477 13.0456 11.4051 13.2872C10.2727 14.3342 8.89758 14.898 6.79452 14.898C2.83105 14.9785 0 12.0792 0 8.37448Z" fill="#58595B"/>
<path d="M35.752 3.2231C35.752 2.41773 36.399 1.77344 37.2079 1.77344H37.5315C38.1786 1.77344 38.583 2.09559 38.8257 2.49827L42.3038 8.13585L45.782 2.49827C46.1055 2.01505 46.5099 1.77344 47.0761 1.77344H47.3997C48.2086 1.77344 48.8557 2.41773 48.8557 3.2231V13.5318C48.8557 14.3372 48.2086 14.9815 47.3997 14.9815C46.5908 14.9815 46.0246 14.3372 46.0246 13.5318V7.08887L43.5171 10.9546C43.1936 11.4379 42.87 11.6795 42.3038 11.6795C41.8185 11.6795 41.414 11.4379 41.0905 10.9546L38.583 7.16941V13.6124C38.583 14.4177 37.9359 14.9815 37.2079 14.9815C36.399 14.9815 35.8328 14.3372 35.8328 13.6124V3.2231H35.752Z" fill="#58595B"/>
<path d="M51.3633 3.2231C51.3633 2.41773 52.0104 1.77344 52.8193 1.77344H53.1428C53.7899 1.77344 54.1943 2.09559 54.437 2.49827L57.9151 8.13585L61.3933 2.49827C61.7168 2.01505 62.1213 1.77344 62.6875 1.77344H63.011C63.8199 1.77344 64.467 2.41773 64.467 3.2231V13.5318C64.467 14.3372 63.8199 14.9815 63.011 14.9815C62.2022 14.9815 61.6359 14.3372 61.6359 13.5318V7.08887L59.0476 10.8741C58.724 11.3573 58.4005 11.5989 57.8342 11.5989C57.3489 11.5989 56.9445 11.3573 56.6209 10.8741L54.1943 7.08887V13.5318C54.1943 14.3372 53.5472 14.901 52.8193 14.901C52.0104 14.901 51.4442 14.2567 51.4442 13.5318V3.2231H51.3633Z" fill="#58595B"/>
<path d="M66.8125 9.26188V3.14107C66.8125 2.3357 67.4596 1.69141 68.2685 1.69141C69.0773 1.69141 69.7244 2.3357 69.7244 3.14107V9.18134C69.7244 11.2753 70.776 12.4028 72.5555 12.4028C74.335 12.4028 75.3865 11.3558 75.3865 9.26188V3.14107C75.3865 2.3357 76.0336 1.69141 76.8425 1.69141C77.6514 1.69141 78.2985 2.3357 78.2985 3.14107V9.1008C78.2985 13.0471 76.1145 14.98 72.6364 14.98C68.9965 14.98 66.8125 13.0471 66.8125 9.26188Z" fill="#58595B"/>
<path d="M80.5635 3.2231C80.5635 2.41773 81.2106 1.77344 82.0194 1.77344H82.343C83.071 1.77344 83.4754 2.09559 83.799 2.57881L89.2993 9.82713V3.14257C89.2993 2.3372 89.9464 1.77344 90.6744 1.77344C91.4832 1.77344 92.0494 2.41773 92.0494 3.14257V13.4513C92.0494 14.2567 91.4023 14.901 90.5935 14.901C89.9464 14.901 89.4611 14.5788 89.1375 14.0956L83.3945 6.60565V13.5318C83.3945 14.3372 82.7474 14.901 82.0194 14.901C81.2106 14.901 80.6444 14.2567 80.6444 13.5318V3.2231H80.5635Z" fill="#58595B"/>
<path d="M94.9619 3.14107C94.9619 2.3357 95.609 1.69141 96.4179 1.69141C97.2267 1.69141 97.8738 2.3357 97.8738 3.14107V13.4498C97.8738 14.2552 97.2267 14.8995 96.4179 14.8995C95.609 14.8995 94.9619 14.2552 94.9619 13.4498V3.14107Z" fill="#58595B"/>
<path d="M103.617 4.51078H100.866C100.138 4.51078 99.5723 3.94702 99.5723 3.22218C99.5723 2.49735 100.138 1.93359 100.866 1.93359H109.198C109.926 1.93359 110.492 2.49735 110.492 3.22218C110.492 3.94702 109.926 4.51078 109.198 4.51078H106.448V13.5309C106.448 14.3363 105.801 14.9806 104.992 14.9806C104.183 14.9806 103.536 14.3363 103.536 13.5309V4.51078H103.617Z" fill="#58595B"/>
<path d="M115.507 9.82563L111.301 4.18805C111.058 3.94644 110.978 3.54376 110.978 3.14107C110.978 2.41624 111.625 1.77194 112.434 1.77194C113.081 1.77194 113.485 2.09409 113.809 2.65785L116.963 7.16792L120.199 2.57731C120.522 2.09409 121.008 1.69141 121.574 1.69141C122.464 1.69141 122.949 2.3357 122.949 3.06053C122.949 3.46322 122.787 3.78537 122.544 4.02698L118.338 9.66456V13.3693C118.338 14.1746 117.691 14.8189 116.882 14.8189C116.073 14.8189 115.426 14.1746 115.426 13.3693V9.82563H115.507Z" fill="#58595B"/>
<path d="M1.45589 20.6176C1.45589 19.8123 2.10298 19.168 2.91185 19.168H10.1917C10.9197 19.168 11.4859 19.7317 11.4859 20.4566C11.4859 21.1814 10.9197 21.7452 10.1917 21.7452H4.28694V24.4834H9.30193C10.0299 24.4834 10.5961 25.0472 10.5961 25.772C10.5961 26.4968 10.0299 27.0606 9.30193 27.0606H4.28694V30.7653C4.28694 31.5707 3.63984 32.215 2.83097 32.215C2.0221 32.215 1.375 31.5707 1.375 30.7653V20.6176H1.45589Z" fill="#58595B"/>
<path d="M35.752 26.5783V20.4575C35.752 19.6521 36.399 19.0078 37.2079 19.0078C38.0168 19.0078 38.6639 19.6521 38.6639 20.4575V26.4977C38.6639 28.5917 39.7154 29.7192 41.4949 29.7192C43.2745 29.7192 44.326 28.6722 44.326 26.5783V20.4575C44.326 19.6521 44.9731 19.0078 45.7819 19.0078C46.5908 19.0078 47.2379 19.6521 47.2379 20.4575V26.4172C47.2379 30.3635 45.054 32.2964 41.5758 32.2964C37.855 32.3769 35.752 30.4441 35.752 26.5783Z" fill="#58595B"/>
<path d="M49.5029 20.5356C49.5029 19.7302 50.15 19.0859 50.9589 19.0859H51.2824C52.0104 19.0859 52.4149 19.4081 52.7384 19.8913L58.2387 27.1396V20.4551C58.2387 19.6497 58.8858 19.0859 59.6138 19.0859C60.4227 19.0859 60.9889 19.7302 60.9889 20.4551V30.7638C60.9889 31.5692 60.3418 32.2135 59.5329 32.2135H59.452C58.8049 32.2135 58.3196 31.8913 57.9961 31.4081L52.2531 23.9182V30.8443C52.2531 31.6497 51.606 32.2135 50.878 32.2135C50.0691 32.2135 49.5029 31.5692 49.5029 30.8443V20.5356Z" fill="#58595B"/>
<path d="M68.7541 29.5572C71.0998 29.5572 72.6367 27.9465 72.6367 25.6915C72.6367 23.4364 71.0998 21.8257 68.7541 21.8257H66.5701V29.6378H68.7541V29.5572ZM63.7391 20.6176C63.7391 19.8123 64.3862 19.168 65.1951 19.168H68.7541C72.8793 19.168 75.6295 21.9868 75.6295 25.6109C75.6295 29.2351 72.7984 32.0539 68.7541 32.0539H65.1142C64.3053 32.0539 63.6582 31.4096 63.6582 30.6042V20.6176H63.7391Z" fill="#58595B"/>
<path d="M84.5273 26.7394L82.7478 22.4709L80.9683 26.7394H84.5273ZM76.4386 30.283L80.9683 20.1353C81.2918 19.4105 81.858 19.0078 82.6669 19.0078H82.8287C83.6376 19.0078 84.2038 19.4105 84.4464 20.1353L88.9761 30.283C89.057 30.5246 89.1379 30.6857 89.1379 30.8467C89.1379 31.5716 88.5717 32.2159 87.7628 32.2159C87.1157 32.2159 86.6304 31.8132 86.3877 31.2494L85.498 29.236H79.755L78.9461 31.4105C78.7034 31.9743 78.2181 32.2964 77.6519 32.2964C76.9239 32.2964 76.3577 31.7326 76.3577 30.9273C76.2768 30.7662 76.3577 30.5246 76.4386 30.283Z" fill="#58595B"/>
<path d="M92.6156 21.8272H89.8655C89.1375 21.8272 88.5713 21.2634 88.5713 20.5386C88.5713 19.8138 89.1375 19.25 89.8655 19.25H98.1969C98.9248 19.25 99.491 19.8138 99.491 20.5386C99.491 21.2634 98.9248 21.8272 98.1969 21.8272H95.4467V30.8473C95.4467 31.6527 94.7996 32.297 93.9907 32.297C93.1819 32.297 92.5348 31.6527 92.5348 30.8473V21.8272H92.6156Z" fill="#58595B"/>
<path d="M101.271 20.5356C101.271 19.7302 101.918 19.0859 102.726 19.0859C103.535 19.0859 104.182 19.7302 104.182 20.5356V30.8443C104.182 31.6497 103.535 32.294 102.726 32.294C101.918 32.294 101.271 31.6497 101.271 30.8443V20.5356Z" fill="#58595B"/>
<path d="M117.124 25.6909C117.124 23.4358 115.506 21.5835 113.161 21.5835C110.896 21.5835 109.278 23.3553 109.278 25.6103C109.278 27.8654 110.896 29.6372 113.241 29.6372C115.587 29.7177 117.124 27.9459 117.124 25.6909ZM106.285 25.6909C106.285 21.9862 109.197 18.9258 113.241 18.9258C117.286 18.9258 120.117 21.9056 120.117 25.6103C120.117 29.315 117.205 32.2949 113.161 32.2949C109.197 32.3754 106.285 29.3956 106.285 25.6909Z" fill="#58595B"/>
<path d="M122.221 20.5356C122.221 19.7302 122.868 19.0859 123.677 19.0859H124C124.728 19.0859 125.133 19.4081 125.456 19.8913L130.956 27.1396V20.4551C130.956 19.6497 131.604 19.0859 132.332 19.0859C133.14 19.0859 133.707 19.7302 133.707 20.4551V30.7638C133.707 31.5692 133.06 32.2135 132.251 32.2135H132.17C131.523 32.2135 131.037 31.8913 130.714 31.4081L124.971 23.9182V30.8443C124.971 31.6497 124.324 32.2135 123.596 32.2135C122.787 32.2135 122.221 31.5692 122.221 30.8443V20.5356Z" fill="#58595B"/>
<path d="M9.46351 42.9278C9.46351 40.9949 8.08843 39.3842 6.06625 39.3842C4.04408 39.3842 2.669 40.9949 2.669 42.9278C2.669 44.8607 4.04408 46.4714 6.06625 46.4714C8.08843 46.3909 9.46351 44.8607 9.46351 42.9278ZM0.808594 42.9278C0.808594 40.109 2.99255 37.7734 6.06625 37.7734C9.13996 37.7734 11.243 40.109 11.243 42.8473C11.243 45.6661 9.05908 48.0016 5.98537 48.0016C2.99255 48.0016 0.808594 45.6661 0.808594 42.9278Z" fill="#58595B"/>
<path d="M13.0225 38.7375C13.0225 38.2542 13.4269 37.8516 13.9122 37.8516H19.7361C20.1405 37.8516 20.545 38.1737 20.545 38.6569C20.545 39.0596 20.2214 39.4623 19.7361 39.4623H14.802V42.2006H19.089C19.4934 42.2006 19.8979 42.5227 19.8979 43.0059C19.8979 43.4086 19.5743 43.8113 19.089 43.8113H14.802V47.0328C14.802 47.516 14.3975 47.9187 13.9122 47.9187C13.4269 47.9187 13.0225 47.516 13.0225 47.0328V38.7375Z" fill="#58595B"/>
<path d="M25.722 46.713C25.5602 46.552 25.3984 46.3103 25.3984 46.0687C25.3984 45.5855 25.8029 45.2634 26.2073 45.2634C26.45 45.2634 26.6117 45.3439 26.6926 45.4244C27.5015 46.0687 28.3913 46.4714 29.5237 46.4714C30.5752 46.4714 31.3032 45.9882 31.3032 45.1828C31.3032 44.458 30.8988 44.0553 29.0384 43.6526C26.9353 43.1694 25.722 42.5251 25.722 40.6728C25.722 38.9815 27.178 37.7734 29.1192 37.7734C30.4134 37.7734 31.3841 38.0956 32.2738 38.6593C32.4356 38.7399 32.6783 38.9815 32.6783 39.3842C32.6783 39.8674 32.2738 40.1895 31.8694 40.1895C31.7076 40.1895 31.5459 40.109 31.3841 40.0285C30.5752 39.5452 29.8472 39.3036 29.1192 39.3036C28.0677 39.3036 27.5015 39.8674 27.5015 40.5117C27.5015 41.3171 27.9868 41.6392 29.8472 42.0419C31.9503 42.5251 33.0018 43.3305 33.0018 44.9412C33.0018 46.7936 31.5459 47.9211 29.4428 47.9211C28.0677 48.0016 26.8544 47.5184 25.722 46.713Z" fill="#58595B"/>
<path d="M34.8623 38.6593C34.8623 38.1761 35.2667 37.7734 35.7521 37.7734C36.2374 37.7734 36.6418 38.1761 36.6418 38.6593V47.0352C36.6418 47.5184 36.2374 47.9211 35.7521 47.9211C35.2667 47.9211 34.8623 47.5184 34.8623 47.0352V38.6593Z" fill="#58595B"/>
<path d="M38.9062 38.7399C38.9062 38.2567 39.3107 37.854 39.796 37.854H39.9578C40.3622 37.854 40.6049 38.0956 40.8475 38.3372L45.8625 44.7801V38.6593C45.8625 38.1761 46.267 37.7734 46.7523 37.7734C47.2376 37.7734 47.6421 38.1761 47.6421 38.6593V47.0352C47.6421 47.5184 47.2376 47.9211 46.7523 47.9211H46.6714C46.267 47.9211 46.0243 47.6795 45.7817 47.3573L40.6858 40.7533V47.0352C40.6858 47.5184 40.2813 47.9211 39.796 47.9211C39.3107 47.9211 38.9062 47.5184 38.9062 47.0352V38.7399Z" fill="#58595B"/>
<path d="M49.3408 42.9278C49.3408 40.109 51.4439 37.7734 54.5176 37.7734C56.0545 37.7734 57.0251 38.0956 57.9149 38.8204C58.0766 38.9815 58.2384 39.2231 58.2384 39.5452C58.2384 40.0285 57.834 40.4312 57.3486 40.4312C57.106 40.4312 56.9442 40.3506 56.7824 40.2701C56.1353 39.7869 55.4073 39.4647 54.3558 39.4647C52.4954 39.4647 51.1203 41.0755 51.1203 43.0083C51.1203 45.0218 52.4954 46.552 54.5176 46.552C55.4882 46.552 56.2971 46.2298 56.9442 45.8271V43.9748H55.0029C54.5985 43.9748 54.194 43.6526 54.194 43.2499C54.194 42.8473 54.5176 42.4446 55.0029 42.4446H57.7531C58.2384 42.4446 58.6428 42.8473 58.6428 43.3305V45.9882C58.6428 46.4714 58.4811 46.8741 57.9957 47.1157C57.106 47.6795 55.9736 48.1627 54.4367 48.1627C51.4439 48.0016 49.3408 45.8271 49.3408 42.9278Z" fill="#58595B"/>
<path d="M66.5702 43.8942L64.7907 39.8674L63.0112 43.8942H66.5702ZM60.0993 46.713L63.8201 38.4983C63.9819 38.0956 64.3863 37.7734 64.8716 37.7734H64.9525C65.4378 37.7734 65.7614 38.015 66.004 38.4983L69.644 46.713C69.7248 46.8741 69.7248 46.9546 69.7248 47.1157C69.7248 47.5989 69.4013 47.9211 68.916 47.9211C68.5115 47.9211 68.188 47.6795 68.0262 47.2768L67.2173 45.4244H62.3641L61.5552 47.3573C61.3935 47.6795 61.1508 47.9211 60.7464 47.9211C60.261 47.9211 59.9375 47.5989 59.9375 47.1157C59.9375 46.9546 60.0184 46.8741 60.0993 46.713Z" fill="#58595B"/>
<path d="M75.0634 43.0865C76.3576 43.0865 77.2474 42.3616 77.2474 41.3146C77.2474 40.1871 76.4385 39.5428 75.0634 39.5428H73.0412V43.0865H75.0634ZM71.2617 38.7375C71.2617 38.2542 71.6662 37.8516 72.1515 37.8516H75.2252C77.5709 37.8516 79.0269 39.1402 79.0269 41.1536C79.0269 43.4086 77.2474 44.5361 75.0634 44.5361H73.1221V46.9522C73.1221 47.4355 72.7177 47.8381 72.2324 47.8381C71.747 47.8381 71.3426 47.4355 71.3426 46.9522V38.7375H71.2617Z" fill="#58595B"/>
<path d="M88.652 42.9278C88.652 40.9949 87.2769 39.3842 85.2547 39.3842C83.2326 39.3842 81.8575 40.9949 81.8575 42.9278C81.8575 44.8607 83.2326 46.4714 85.2547 46.4714C87.2769 46.3909 88.652 44.8607 88.652 42.9278ZM79.9971 42.9278C79.9971 40.109 82.181 37.7734 85.2547 37.7734C88.3284 37.7734 90.4315 40.109 90.4315 42.8473C90.4315 45.6661 88.2476 48.0016 85.1738 48.0016C82.181 48.0016 79.9971 45.6661 79.9971 42.9278Z" fill="#58595B"/>
<path d="M96.5788 42.8449C97.873 42.8449 98.601 42.2006 98.601 41.1536C98.601 40.1066 97.7921 39.5428 96.498 39.5428H93.9096V42.8449H96.5788ZM92.2109 38.7375C92.2109 38.2542 92.6154 37.8516 93.1007 37.8516H96.6597C97.9539 37.8516 98.9246 38.2542 99.5717 38.818C100.138 39.3818 100.381 40.1066 100.381 40.9925C100.381 42.6032 99.4908 43.5697 98.1157 43.9724L100.057 46.3885C100.219 46.6301 100.381 46.7912 100.381 47.0328C100.381 47.516 99.9761 47.8381 99.5717 47.8381C99.1672 47.8381 98.9246 47.6771 98.6819 47.3549L96.2553 44.2945H94.0713V46.9522C94.0713 47.4355 93.6669 47.8381 93.1816 47.8381C92.6963 47.8381 92.2918 47.4355 92.2918 46.9522V38.7375H92.2109Z" fill="#58595B"/>
<path d="M102.16 46.9522V38.7375C102.16 38.2542 102.565 37.8516 103.05 37.8516H108.874C109.278 37.8516 109.683 38.1737 109.683 38.6569C109.683 39.0596 109.359 39.4623 108.874 39.4623H103.94V42.0395H108.227C108.631 42.0395 109.036 42.3616 109.036 42.8449C109.036 43.2475 108.712 43.6502 108.227 43.6502H103.94V46.3079H108.955C109.359 46.3079 109.764 46.6301 109.764 47.1133C109.764 47.516 109.44 47.9187 108.955 47.9187H103.05C102.565 47.8381 102.16 47.4355 102.16 46.9522Z" fill="#58595B"/>
</g>
<defs>
<clipPath id="clip0_4039_1400">
<rect width="133.787" height="48" fill="white"/>
</clipPath>
</defs>
</svg>
